<?xml version="1.0" standalone="no"?>
<!DOCTYPE svg PUBLIC "-//W3C//DTD SVG 20010904//EN"
 "http://www.w3.org/TR/2001/REC-SVG-20010904/DTD/svg10.dtd">
<svg version="1.0" xmlns="http://www.w3.org/2000/svg"
 width="300.000000pt" height="300.000000pt" viewBox="0 0 300.000000 300.000000"
 preserveAspectRatio="xMidYMid meet">
<metadata>
Created by potrace 1.11, written by Peter Selinger 2001-2013
</metadata>
<g transform="translate(0.000000,300.000000) scale(0.100000,-0.100000)"
fill="#000000" stroke="none">
<path d="M1334 2672 c-8 -5 -5 -42 12 -132 69 -371 69 -365 44 -300 -12 30
-25 64 -30 75 -5 11 -23 66 -41 123 -31 94 -48 118 -64 92 -3 -5 10 -55 29
-111 20 -56 36 -106 36 -112 0 -7 -18 20 -41 58 -49 84 -44 79 -64 71 -18 -7
1 -47 113 -233 34 -56 62 -107 62 -112 0 -6 -25 5 -55 24 -75 48 -81 50 -82
23 0 -20 -57 -183 -188 -543 -20 -55 -50 -138 -67 -185 -17 -47 -47 -114 -68
-150 -20 -36 -95 -168 -165 -295 -71 -126 -137 -246 -148 -265 -11 -19 -31
-55 -45 -80 -13 -25 -33 -60 -44 -77 -11 -18 -18 -33 -16 -33 3 0 38 -12 79
-26 237 -84 360 -122 409 -128 30 -4 87 -11 125 -17 96 -14 113 -16 250 -35
l120 -16 285 50 285 50 203 98 202 99 -241 395 c-222 362 -247 408 -305 555
-194 492 -234 590 -242 593 -4 1 -34 -9 -65 -22 l-56 -25 19 34 c11 19 30 52
41 73 103 179 229 411 229 419 0 6 -6 13 -14 16 -13 5 -23 -10 -153 -243 -29
-52 -53 -90 -53 -85 0 6 12 45 27 87 15 42 24 80 21 84 -19 18 -38 -15 -77
-128 -23 -67 -53 -150 -66 -183 -24 -58 -24 -59 -21 -20 2 22 6 47 9 55 6 18
67 361 67 378 0 7 -9 12 -20 12 -11 0 -20 -3 -20 -6 0 -22 -62 -363 -69 -379
-5 -12 -8 81 -7 228 3 205 1 250 -11 254 -8 3 -17 3 -20 -1 -3 -3 -7 -81 -9
-173 -1 -93 -3 -170 -4 -173 -3 -7 -25 102 -45 220 -24 137 -25 140 -51 122z
m143 -534 c-3 -7 -5 -2 -5 12 0 14 2 19 5 13 2 -7 2 -19 0 -25z m-192 -185 c6
-45 3 -54 -62 -168 -37 -66 -79 -141 -93 -167 -13 -26 -26 -46 -27 -44 -2 1
15 52 36 112 22 60 59 164 83 231 45 129 51 132 63 36z m562 -339 c-2 -2 -45
66 -96 151 l-94 154 7 53 c4 28 10 56 13 61 3 5 43 -87 89 -204 46 -117 82
-214 81 -215z"/>
</g>
</svg>
